<svg xmlns="http://www.w3.org/2000/svg" style="display: none;" id="aeicon">
  <symbol viewBox="0 0 256 256">
    <path fill="#c83200" stroke="#c83200" d="m 32.516903,997.47956 c -2.409329,0 -4.951729,0.27127 -7.538073,0.8023 -9.25196,2.20464 -16.4664098,8.23264 -21.4457047,17.90654 -1.5978479,3.1049 -2.4652297,5.3501 -2.4688553,5.3655 l 6.0705099,-0.055 c 5.9083701,-14.3988 14.1116061,-16.8931 17.5461931,-17.7402 l 0.870659,-0.2326 c 3.320805,-0.5219 4.701756,-0.5463 6.850711,-0.5463 1.700238,0 3.22572,0.1304 4.536592,0.3836 1.36906,0.2558 2.461648,0.6726 3.356618,1.2905 1.015028,0.6214 1.813955,1.538 2.3714,2.721 0.558743,1.185 0.836292,2.643 0.836292,4.4533 l 0.08019,3.1627 c -1.659721,0.032 -3.293752,-0.04 -4.868816,-0.1041 -2.266489,-0.094 -4.407462,-0.1733 -6.518486,0.024 -3.592568,0.3779 -6.612724,1.1008 -8.99299,2.1511 -2.490298,1.1313 -4.459676,2.7393 -5.842581,4.7907 -1.342455,2.0506 -2.016262,4.8737 -2.016262,8.3834 0,4.1496 1.321595,7.5945 3.929421,10.2322 2.62045,2.6538 5.836724,3.9999 9.565794,3.9999 2.740572,0 5.092101,-0.3141 6.999638,-0.9301 1.707814,-0.5633 3.463005,-1.394 5.212498,-2.4536 1.331063,-0.8654 2.498352,-1.7892 3.551373,-2.8253 l 2.837545,-2.9109 1.691679,-30.1031 c -1.372489,-2.3582 -3.937466,-4.4789 -6.511119,-5.82227 -2.544664,-1.28572 -5.941526,-1.94179 -10.104227,-1.94179 z m 10.596836,23.22024 c 0,1.9604 0.12764,3.8399 0.366593,5.5581 0.279338,1.7567 0.636242,3.3482 1.15706,4.7789 -1.71791,1.798 -3.790848,3.2676 -6.186261,4.4532 -2.437225,1.146 -4.83943,1.756 -7.194391,1.756 -2.875841,0 -5.029305,-0.604 -6.507031,-1.8721 -1.438569,-1.2258 -2.165191,-3.113 -2.165191,-5.6046 0,-2.168 0.598985,-3.8426 1.798599,-5.0695 1.237544,-1.226 2.802247,-2.0853 4.719887,-2.6163 1.956794,-0.5723 4.146504,-0.9343 6.621589,-1.0581 2.435929,-0.1625 4.914062,-0.2445 7.389146,-0.3256 z m -42.0603293,0.8385 c 0,25.9585 21.2048773,46.8946 46.9406023,46.8946 25.736948,0 46.971575,-21.6982 46.971575,-47.6568 l -0.03038,0.032 c 0,11.845 -13.646182,41.6134 -46.941198,41.6585 h -0.02291 -0.04583 -0.01144 c -22.477944,-0.049 -40.7584752,-18.2881 -40.7584752,-40.9709 l -0.00168,0.01 z" transform="translate(0.01026233,-973.43829)"/>
    <path fill="#329600" stroke="#329600" d="m 47.551022,974.4494 c -25.847619,0 -46.88729569,21.32908 -46.56634309,46.8749 C 3.7301949,992.47063 28.062271,982.10262 48.052901,981.08804 h 0.03043 c 25.099786,1.01458 40.245281,22.00536 41.08913,39.61486 l 5.764284,-0.179 C 94.615798,994.9781 73.398572,974.4494 47.551022,974.4494 Z m 16.523255,22.99581 c -2.996173,0 -5.751006,0.70507 -8.22288,2.11743 -2.071875,1.16266 -5.24725,3.72346 -6.720342,5.40736 l -1.774146,30.2925 c 1.69101,1.8158 6.390636,5.167 8.54924,6.2049 2.911518,1.3995 6.442185,2.106 10.496517,2.106 1.555877,0 2.896528,-0.098 4.034878,-0.2846 7.466004,-2.0947 10.723566,-4.5479 10.814682,-4.6218 5.840641,-4.6924 9.121879,-9.9026 13.671351,-18.1374 l -5.741274,0.1568 c -3.165955,7.6573 -9.981532,13.268 -10.86989,13.8484 -0.887768,0.5811 -1.968357,1.1983 -3.244694,1.8215 -1.161223,0.5405 -2.519123,1.0388 -4.032221,1.4116 -1.550585,0.4158 -3.144501,0.6261 -4.778445,0.6261 -1.983647,0 -3.850636,-0.2847 -5.568057,-0.8652 -1.681222,-0.5819 -3.214598,-1.5438 -4.592813,-2.9142 -1.378144,-1.3698 -2.45267,-3.1572 -3.219318,-5.3163 -0.80593,-2.2022 -1.591808,-5.8163 -1.629865,-8.8457 l 30.353661,0.1594 -0.03218,-2.5612 c -0.0088,-0.6948 -0.04043,-1.3652 -0.083,-2.0265 -0.352647,-5.4798 -1.85819,-9.8773 -4.46813,-13.1372 -2.964103,-3.61409 -7.263069,-5.44159 -12.94309,-5.44159 z m 0.174779,5.66929 c 1.925924,0 3.580012,0.2785 4.993635,0.9335 1.411865,0.6132 2.540781,1.4368 3.356001,2.4592 0.854558,1.0231 1.468553,2.2962 1.887229,3.6881 0.459794,1.4309 0.718105,2.9349 0.896831,4.531 H 51.76184 c 0.221168,-1.5961 0.642972,-3.1039 1.265644,-4.5763 0.624345,-1.4325 1.454188,-2.6665 2.484883,-3.6884 1.109678,-1.1044 2.3389,-1.9205 3.696475,-2.4934 1.315644,-0.5727 2.994941,-0.8537 5.040214,-0.8537 z" paint-order="markers fill stroke" transform="translate(0.01026233,-973.43829)"/>  
  </symbol>  
</svg>
